<?xml version="1.0" encoding="UTF-8"?>
<svg id="Layer_1" xmlns="http://www.w3.org/2000/svg" version="1.1" viewBox="0 0 1252.7 164.2">
  <!-- Generator: Adobe Illustrator 29.7.1, SVG Export Plug-In . SVG Version: 2.1.1 Build 8)  -->
  <defs>
    <style>
      .st0 {
        fill: #064e3b;
      }
    </style>
  </defs>
  <path class="st0" d="M111,16.9h78.9c-6.4,11.6-12.7,23.2-19.1,34.7-6.4,11.6-12.8,23.2-19.2,34.7-6.4,11.6-12.8,23.2-19.2,34.7v26.1H60.3v-26.2c-4.1-6.9-8.1-13.9-12.1-20.8s-8-13.9-12-20.8-8-13.9-12.1-20.8c-4.1-6.9-8.1-13.8-12.1-20.8-4-6.9-8-13.9-12.1-20.8h83.4c1.5,5.6,3,11.1,4.4,16.7,1.4,5.6,2.9,11.1,4.4,16.7,1.5,5.6,3,11.1,4.3,16.7l.2.2.2-.2c1.2-4.2,2.3-8.3,3.5-12.5,1.2-4.2,2.3-8.3,3.6-12.5,1.2-4.2,2.4-8.3,3.6-12.5,1.2-4.2,2.3-8.3,3.5-12.5Z"/>
  <path class="st0" d="M307.3,16.9c2.1,7.2,4.1,14.4,6.2,21.6,2,7.2,4.1,14.5,6.1,21.7,2,7.2,4.1,14.5,6.2,21.7,2.1,7.2,4.1,14.5,6.2,21.7,2,7.2,4.1,14.5,6.1,21.7,2,7.2,4.1,14.5,6.2,21.8h-77.5l-3-17h-23.6l-3,17h-74.2c2.1-7.3,4.1-14.6,6.2-21.8,2-7.2,4.1-14.5,6.1-21.7,2-7.2,4.1-14.5,6.1-21.7,2-7.2,4.1-14.5,6.1-21.7,2-7.2,4.1-14.5,6.1-21.7,2-7.2,4-14.4,6-21.6h107.9ZM242.1,118h19.3c.1,0,.2,0,.2-.2-.9-5.7-1.8-10.7-2.5-15-.8-4.3-1.5-9-2.3-13.9-.8-4.9-1.6-9.6-2.3-14-.7-4.4-1.6-9.4-2.6-14.9h-.2c-.9,5.6-1.8,10.5-2.5,14.9-.8,4.4-1.5,9.1-2.3,14-.8,4.9-1.6,9.6-2.3,13.9s-1.5,9.4-2.4,15v.2Z"/>
  <path class="st0" d="M347.9,16.9h125.6c10.2,0,18.6,1.8,25.4,5.5,6.7,3.6,11.8,8.3,15.1,14.1,3.4,5.7,5,11.8,5,18.2s-1.8,13-5.5,19.2c-3.6,6.2-9.1,11.3-16.5,15.2-7.4,3.9-16.5,5.9-27.5,5.9h-12.9v.7h39.4l26.8,51.6h-82.5c-2.2-5.9-4.4-11.8-6.7-17.7-2.3-5.9-4.5-11.8-6.8-17.7-2.3-5.9-4.5-11.8-6.9-17.7h20.1c2.3,0,4.4-.3,6.2-1,1.8-.7,3.3-1.6,4.4-2.8,1.2-1.2,2-2.5,2.6-3.9.6-1.4.9-2.9.9-4.4s-.5-4.1-1.6-5.9c-1-1.9-2.6-3.4-4.7-4.5-2.1-1.2-4.7-1.7-7.8-1.7h-19.8c-.1.1-.2.2-.3.2s0,0,0,.2v23.2c0,.9,0,1.2,0,1v53h-72.1V16.9Z"/>
  <path class="st0" d="M630.4,16.9c10.9,0,20.5,1.2,28.9,3.6,8.4,2.4,15.6,5.6,21.6,9.8,6,4.2,10.9,9,14.8,14.5,3.8,5.5,6.7,11.4,8.5,17.6,1.9,6.3,2.8,12.6,2.8,19.1s-1.5,16.2-4.4,24.1c-3,7.8-7.5,14.9-13.7,21.1-6.2,6.3-14.1,11.2-23.8,14.9-9.7,3.7-21.2,5.6-34.7,5.6h-103.5V16.9h103.5ZM616.5,67h-20.8v30.2h21.2c2.5,0,4.8-.4,6.9-1.2,2-.8,3.7-1.9,5.1-3.3s2.5-3,3.2-4.9c.8-1.9,1.1-3.8,1.1-5.7s-.7-5.3-2-7.6c-1.3-2.3-3.2-4.1-5.6-5.5-2.4-1.3-5.4-2-9-2Z"/>
  <path class="st0" d="M712.2,16.9h136.7c7.8,0,14.2,1.5,19.3,4.4,5.1,3,8.9,6.7,11.6,11.4,2.6,4.6,3.9,9.5,3.9,14.6s-1.3,10-4,14.9c-2.7,4.8-6.7,8.7-12.1,11.7-5.4,3-12.1,4.5-20.2,4.5s-.1,0,0,.2c9.4,0,17.1,1.7,23.3,5,6.1,3.4,10.7,7.6,13.7,12.9,3,5.2,4.5,10.7,4.5,16.5s-.8,8.5-2.5,12.5c-1.7,4.1-4.2,7.7-7.6,11-3.4,3.3-7.5,5.9-12.5,7.8-5,1.9-10.8,2.9-17.4,2.9h-136.7V16.9ZM780.8,60.9c-.1,0-.2,0-.2.2v15.5h24c2.1,0,3.8-.4,5.2-1.1,1.4-.8,2.4-1.7,3.1-3,.7-1.2,1-2.5,1-3.9,0-2-.7-3.7-2-5.3-1.3-1.6-3.3-2.3-5.8-2.3h-25.4ZM780.6,89.2v11.6h24.8c3.1,0,5.5-.8,7-2.4,1.6-1.6,2.3-3.5,2.3-5.6s-.2-2-.5-2.9c-.3-.9-.8-1.7-1.5-2.4-.6-.8-1.5-1.3-2.4-1.7-1-.4-2.1-.6-3.4-.6h-26.2l-.2.2v3.8Z"/>
  <path class="st0" d="M1038.2,20.8c14.1,6,24.7,14.3,31.8,24.8,7.1,10.5,10.6,22.6,10.6,36.3s-1.1,14.6-3.3,21.5c-2.2,6.9-5.7,13.3-10.4,19.3-4.8,6-10.9,11.2-18.4,15.6-7.5,4.5-16.5,7.9-27,10.4-10.5,2.5-22.6,3.7-36.4,3.7s-18.8-.7-27-2c-8.2-1.3-15.5-3.2-22.1-5.6s-12.4-5.2-17.5-8.6c-5-3.4-9.4-7.1-13-11.2-3.6-4.1-6.7-8.5-9-13.1-2.4-4.6-4.1-9.5-5.2-14.6-1.1-5.1-1.6-10.2-1.6-15.5s.9-13.3,2.7-19.5c1.8-6.1,4.5-11.8,8-17,3.5-5.2,7.9-9.9,13.2-14,5.3-4.1,11.4-7.6,18.5-10.6,7.1-3,15-5.2,23.9-6.8,8.9-1.6,18.6-2.3,29.3-2.3,21.3,0,39,3,53.2,9ZM974.9,68.3c-2.8.9-5.1,2-6.8,3.5-1.7,1.4-2.9,3.1-3.6,4.9-.8,1.8-1.1,3.6-1.1,5.5s.7,4.8,2.1,7.1c1.4,2.3,3.7,4.2,6.9,5.7,3.2,1.5,7.5,2.3,12.9,2.3s5.9-.3,8.2-.9c2.4-.6,4.4-1.4,6.1-2.3,1.7-1,3.1-2.1,4.2-3.5,1.1-1.3,1.9-2.7,2.3-4.2.5-1.4.7-2.9.7-4.4s-.4-3.5-1.1-5.2c-.8-1.7-1.9-3.3-3.6-4.8-1.6-1.4-3.8-2.6-6.6-3.6-2.8-.9-6.2-1.4-10.2-1.4s-7.5.4-10.3,1.3Z"/>
  <path class="st0" d="M1173.9,16.9h78.9c-6.4,11.6-12.7,23.2-19.1,34.7-6.4,11.6-12.8,23.2-19.2,34.7-6.4,11.6-12.8,23.2-19.2,34.7v26.1h-72.1v-26.2c-4.1-6.9-8.1-13.9-12.1-20.8s-8-13.9-12-20.8-8-13.9-12.1-20.8c-4.1-6.9-8.1-13.8-12.1-20.8-4-6.9-8-13.9-12.1-20.8h83.4c1.5,5.6,3,11.1,4.4,16.7,1.4,5.6,2.9,11.1,4.4,16.7,1.5,5.6,3,11.1,4.3,16.7l.2.2.2-.2c1.2-4.2,2.3-8.3,3.5-12.5,1.2-4.2,2.3-8.3,3.6-12.5,1.2-4.2,2.4-8.3,3.6-12.5,1.2-4.2,2.3-8.3,3.5-12.5Z"/>
</svg>